<?xml version="1.0" encoding="UTF-8" standalone="no"?>
<!-- Generator: Adobe Illustrator 18.0.0, SVG Export Plug-In . SVG Version: 6.00 Build 0)  -->
<!DOCTYPE svg  PUBLIC '-//W3C//DTD SVG 1.1//EN'  'http://www.w3.org/Graphics/SVG/1.1/DTD/svg11.dtd'>
<svg id="Layer_1" xmlns="http://www.w3.org/2000/svg" xml:space="preserve" viewBox="0 0 221.2 197.3" version="1.1" y="0px" x="0px" xmlns:xlink="http://www.w3.org/1999/xlink" enable-background="new 0 0 221.2 197.3">
			<linearGradient id="SVGID_1_" y2="119.74" gradientUnits="userSpaceOnUse" x2="110.59" y1="67.342" x1="110.59">
				<stop stop-color="#fff" offset="0"/>
				<stop stop-color="#F2F9FE" offset=".1327"/>
				<stop stop-color="#CEE9FC" offset=".3804"/>
				<stop stop-color="#9FD4FA" offset=".6626"/>
				<stop stop-color="#93D2F9" offset=".7119"/>
				<stop stop-color="#72CBF7" offset=".8017"/>
				<stop stop-color="#3DC1F4" offset=".9211"/>
				<stop stop-color="#17B9F1" offset="1"/>
			</linearGradient>
			<path d="m85.8 120.9c-2.2 0-3.9-0.8-4.8-2.3-0.8-1.5-0.7-3.3 0.4-5.3l24.8-43c1.1-1.9 2.7-3 4.4-3s3.2 1.1 4.4 3l24.8 43c1.1 1.9 1.3 3.8 0.4 5.3-0.8 1.5-2.5 2.3-4.8 2.3h-49.6z" fill="url(#SVGID_1_)"/>
			<path d="m110.6 68.3c1.3 0 2.5 0.8 3.5 2.5l24.8 43c1.9 3.3 0.4 6.1-3.5 6.1h-49.6c-3.9 0-5.4-2.7-3.5-6.1l24.8-43c0.9-1.6 2.2-2.5 3.5-2.5m0-2c-2 0-3.9 1.3-5.2 3.5l-24.8 43c-1.3 2.2-1.4 4.5-0.4 6.3s3.1 2.8 5.6 2.8h49.6c2.6 0 4.6-1 5.6-2.8s0.9-4.1-0.4-6.3l-24.8-43c-1.3-2.2-3.2-3.5-5.2-3.5z"/>
			<linearGradient id="SVGID_2_" y2="118.85" gradientUnits="userSpaceOnUse" x2="110.59" y1="69.342" x1="110.59">
				<stop stop-color="#97E0F9" offset="0"/>
				<stop stop-color="#8CDDF8" offset=".1472"/>
				<stop stop-color="#6FD4F6" offset=".4056"/>
				<stop stop-color="#40C5F4" offset=".7423"/>
				<stop stop-color="#17B9F1" offset="1"/>
			</linearGradient>
			<path d="m85.8 118.9c-1.5 0-2.6-0.5-3-1.3-0.5-0.8-0.3-2 0.4-3.3l24.8-43c0.7-1.3 1.7-2 2.6-2s1.9 0.7 2.6 2l24.8 43c0.7 1.3 0.9 2.5 0.4 3.3s-1.6 1.3-3 1.3h-49.6z" fill="url(#SVGID_2_)"/>
			<path d="m110.6 70.3c0.6 0 1.2 0.6 1.8 1.5l24.8 43c0.5 0.9 0.7 1.8 0.4 2.3s-1.1 0.8-2.2 0.8h-49.6c-1.1 0-1.9-0.3-2.2-0.8s-0.1-1.3 0.4-2.3l24.8-43c0.6-0.9 1.2-1.5 1.8-1.5m0-2c-1.3 0-2.5 0.8-3.5 2.5l-24.8 43c-1.9 3.3-0.4 6.1 3.5 6.1h49.6c3.9 0 5.4-2.7 3.5-6.1l-24.8-43c-1-1.6-2.2-2.5-3.5-2.5z" fill="#fff"/>
	<g fill="#fff">
		<rect y="95.1" x="106.7" height="18.1" width="7.8"/>
		<rect y="84.5" x="106.7" height="6.8" width="7.8"/>
	</g>
			<linearGradient id="SVGID_3_" y2="189.78" gradientUnits="userSpaceOnUse" x2="110.59" y1="3.554" x1="110.59">
				<stop stop-color="#fff" offset="0"/>
				<stop stop-color="#F2F9FE" offset=".1327"/>
				<stop stop-color="#CEE9FC" offset=".3804"/>
				<stop stop-color="#9FD4FA" offset=".6626"/>
				<stop stop-color="#93D2F9" offset=".7119"/>
				<stop stop-color="#72CBF7" offset=".8017"/>
				<stop stop-color="#3DC1F4" offset=".9211"/>
				<stop stop-color="#17B9F1" offset="1"/>
			</linearGradient>
			<path d="m22.5 193.7c-7.9 0-14-2.9-17-8.1s-2.5-11.9 1.5-18.8l88.1-152.6c4-6.9 9.5-10.7 15.5-10.7s11.5 3.8 15.5 10.7l88.1 152.6c4 6.9 4.5 13.5 1.5 18.8-3 5.2-9.1 8.1-17 8.1h-176.2z" fill="url(#SVGID_3_)"/>
			<path d="m110.6 7.1c4.5 0 9 3 12.4 8.9l88.1 152.6c6.8 11.8 1.2 21.5-12.4 21.5h-176.2c-13.7 0-19.3-9.7-12.4-21.5l88-152.6c3.5-5.9 8-8.9 12.5-8.9m0-7.1v7.1-7.1c-7.3 0-14 4.5-18.6 12.4l-88.1 152.7c-4.6 7.9-5.1 16-1.5 22.3s10.9 9.9 20.1 9.9h176.3c9.1 0 16.4-3.6 20.1-9.9 3.6-6.3 3.1-14.4-1.5-22.3l-88.2-152.7c-4.6-7.9-11.4-12.4-18.6-12.4z"/>
			<linearGradient id="SVGID_4_" y2="186.63" gradientUnits="userSpaceOnUse" x2="110.59" y1="10.662" x1="110.59">
				<stop stop-color="#97E0F9" offset="0"/>
				<stop stop-color="#8CDDF8" offset=".1472"/>
				<stop stop-color="#6FD4F6" offset=".4056"/>
				<stop stop-color="#40C5F4" offset=".7423"/>
				<stop stop-color="#17B9F1" offset="1"/>
			</linearGradient>
			<path d="m22.5 186.6c-5.3 0-9.1-1.6-10.8-4.6-1.7-2.9-1.2-7.1 1.5-11.7l88.1-152.6c2.6-4.6 6-7.1 9.4-7.1s6.7 2.5 9.4 7.1l88.1 152.6c2.6 4.6 3.2 8.7 1.5 11.7-1.7 2.9-5.5 4.6-10.8 4.6h-176.4z" fill="url(#SVGID_4_)"/>
			<path d="m110.6 7.1v7.1c2 0 4.4 2 6.3 5.3l88.1 152.7c1.9 3.3 2.5 6.4 1.5 8.1s-3.9 2.8-7.8 2.8h-176.2c-3.9 0-6.8-1-7.8-2.8-1-1.7-0.5-4.8 1.5-8.1l88.1-152.6c1.9-3.3 4.3-5.3 6.3-5.3v-7.2c-4.5 0-9 3-12.4 8.9l-88.2 152.6c-6.8 11.8-1.2 21.5 12.4 21.5h176.3c13.7 0 19.3-9.7 12.4-21.5l-88.1-152.6c-3.4-5.9-7.9-8.9-12.4-8.9z" fill="#fff"/>
	<g fill="#fff">
		<rect y="102" x="96.8" height="64.5" width="27.6"/>
		<rect y="64.5" x="96.8" height="24.3" width="27.6"/>
	</g>
</svg>
