<?xml version="1.0" encoding="iso-8859-1"?>
<!-- Generator: Adobe Illustrator 19.0.0, SVG Export Plug-In . SVG Version: 6.00 Build 0)  -->
<svg version="1.1" id="Layer_1" xmlns="http://www.w3.org/2000/svg" xmlns:xlink="http://www.w3.org/1999/xlink" x="0px" y="0px"
	 viewBox="0 0 512 512" style="enable-background:new 0 0 512 512;" xml:space="preserve">
<rect x="7.286" y="7.286" style="fill:#FFFFFF;" width="497.43" height="497.43"/>
<path d="M504.713,512H7.286C3.262,512,0,508.738,0,504.714V7.286C0,3.262,3.262,0,7.286,0H73.61c4.024,0,7.287,3.262,7.287,7.286
	s-3.262,7.287-7.287,7.287H14.573v482.854h482.854V14.573H106.772c-4.024,0-7.287-3.262-7.287-7.287S102.748,0,106.772,0h397.942
	C508.738,0,512,3.262,512,7.286v497.427C512,508.738,508.738,512,504.713,512z"/>
<circle style="fill:#ED1F34;" cx="256" cy="256" r="82.904"/>
<path d="M256,346.191c-49.732,0-90.191-40.459-90.191-90.191s40.46-90.191,90.191-90.191s90.191,40.459,90.191,90.191
	S305.731,346.191,256,346.191z M256,180.382c-41.696,0-75.618,33.922-75.618,75.618s33.922,75.618,75.618,75.618
	s75.618-33.922,75.618-75.618S297.696,180.382,256,180.382z"/>
<g>
</g>
<g>
</g>
<g>
</g>
<g>
</g>
<g>
</g>
<g>
</g>
<g>
</g>
<g>
</g>
<g>
</g>
<g>
</g>
<g>
</g>
<g>
</g>
<g>
</g>
<g>
</g>
<g>
</g>
</svg>
